<?xml version="1.0" encoding="UTF-8" standalone="no"?>
<svg
   xmlns:dc="http://purl.org/dc/elements/1.1/"
   xmlns:cc="http://creativecommons.org/ns#"
   xmlns:rdf="http://www.w3.org/1999/02/22-rdf-syntax-ns#"
   xmlns:svg="http://www.w3.org/2000/svg"
   xmlns="http://www.w3.org/2000/svg"
   viewBox="0 0 1122.52 793.70135"
   height="793.70135"
   width="1122.52"
   xml:space="preserve"
   id="svg2"
   version="1.1"><metadata
     id="metadata8"><rdf:RDF><cc:Work
         rdf:about=""><dc:format>image/svg+xml</dc:format><dc:type
           rdf:resource="http://purl.org/dc/dcmitype/StillImage" /></cc:Work></rdf:RDF></metadata><defs
     id="defs6"><clipPath
       id="clipPath22"
       clipPathUnits="userSpaceOnUse"><path
         id="path20"
         d="M 0,595.276 H 841.89 V 0 H 0 Z" /></clipPath></defs><g
     transform="matrix(1.3333333,0,0,-1.3333333,0,793.70133)"
     id="g10"><path
       id="path12"
       style="fill:#1f3c6c;fill-opacity:1;fill-rule:nonzero;stroke:none"
       d="M 0,0 H 841.89 V 595.275 H 0 Z" /><path
       id="path14"
       style="fill:#1f3c6c;fill-opacity:1;fill-rule:nonzero;stroke:none"
       d="M 0,0 H 841.89 V 595.275 H 0 Z" /><g
       id="g16"><g
         clip-path="url(#clipPath22)"
         id="g18"><g
           transform="translate(290.3881,218.5666)"
           id="g24"><path
             id="path26"
             style="fill:#ffffff;fill-opacity:1;fill-rule:nonzero;stroke:none"
             d="M 0,0 C -1.354,0 -2.694,0.615 -3.57,1.783 L -70.491,90.96 c -1.673,2.23 -5.015,2.239 -6.699,0.019 L -144.922,1.763 c -1.713,-2.255 -5.156,-2.427 -7.07,-0.053 -1.293,1.604 -1.17,3.945 0.075,5.586 l 74.558,98.209 c 0.843,1.11 2.158,1.763 3.551,1.763 h 0.012 c 1.399,-0.004 2.716,-0.664 3.555,-1.783 L 3.563,7.135 C 5.04,5.165 4.642,2.371 2.674,0.893 1.871,0.291 0.932,0 0,0" /></g><g
           transform="translate(165.9965,237.3171)"
           id="g28"><path
             id="path30"
             style="fill:#3871c1;fill-opacity:1;fill-rule:nonzero;stroke:none"
             d="m 0,0 16.106,20.962 c 2.342,3.142 7.336,1.486 7.336,-2.433 v -32.558 c 0,-2.248 -1.823,-4.071 -4.071,-4.071 H 0.448 c -2.249,0 -4.071,1.823 -4.071,4.071 v -0.219 l 0.137,6.473 c 0,3.403 1.485,4.788 3.486,7.775" /></g><g
           transform="translate(266.8481,237.3171)"
           id="g32"><path
             id="path34"
             style="fill:#3871c1;fill-opacity:1;fill-rule:nonzero;stroke:none"
             d="m 0,0 -16.107,20.962 c -2.342,3.142 -7.336,1.486 -7.336,-2.433 v -32.558 c 0,-2.248 1.823,-4.071 4.071,-4.071 h 18.923 c 2.249,0 4.071,1.823 4.071,4.071 v -0.219 L 3.485,-7.775 C 3.485,-4.372 2.001,-2.987 0,0" /></g><g
           transform="translate(202.6176,222.9655)"
           id="g36"><path
             id="path38"
             style="fill:#3871c1;fill-opacity:1;fill-rule:nonzero;stroke:none"
             d="m 0,0 v 57.792 c 0,1.091 0.358,2.151 1.02,3.018 l 9.699,13.453 c 1.54,2.019 4.6,1.954 6.053,-0.128 L 25.878,61.09 c 0.772,-1.107 1.187,-2.424 1.187,-3.774 V 0 c 0,-2.07 -1.678,-3.749 -3.749,-3.749 H 3.748 C 1.678,-3.749 0,-2.07 0,0" /></g><g
           transform="translate(199.2797,317.9982)"
           id="g40"><path
             id="path42"
             style="fill:#fab20b;fill-opacity:1;fill-rule:nonzero;stroke:none"
             d="m 0,0 c -1.222,0 -2.399,0.673 -2.984,1.839 -1.565,3.11 -2.358,6.462 -2.358,9.964 0,12.248 9.964,22.212 22.212,22.212 12.248,0 22.212,-9.964 22.212,-22.212 0,-3.153 -0.649,-6.202 -1.93,-9.065 C 36.4,1.054 34.422,0.303 32.743,1.053 31.061,1.806 30.307,3.78 31.06,5.462 c 0.893,2 1.347,4.134 1.347,6.341 0,8.567 -6.97,15.537 -15.537,15.537 C 8.303,27.34 1.333,20.37 1.333,11.803 1.333,9.353 1.888,7.008 2.979,4.837 3.807,3.191 3.143,1.185 1.496,0.356 1.015,0.115 0.504,0 0,0" /></g><g
           transform="translate(241.6791,308.4894)"
           id="g44"><path
             id="path46"
             style="fill:#fcd205;fill-opacity:1;fill-rule:nonzero;stroke:none"
             d="m 0,0 c -0.664,0 -1.336,0.197 -1.921,0.61 -1.506,1.062 -1.866,3.145 -0.804,4.651 3.324,4.711 5.081,10.261 5.081,16.051 0,15.376 -12.509,27.885 -27.885,27.885 -15.375,0 -27.885,-12.509 -27.885,-27.885 0,-5.751 1.734,-11.272 5.019,-15.966 1.057,-1.51 0.689,-3.591 -0.821,-4.647 -1.511,-1.056 -3.593,-0.69 -4.648,0.821 -4.073,5.821 -6.225,12.665 -6.225,19.792 0,19.056 15.503,34.56 34.56,34.56 19.056,0 34.56,-15.504 34.56,-34.56 C 9.031,14.138 6.853,7.257 2.73,1.414 2.08,0.492 1.049,0 0,0" /></g><g
           transform="translate(249.7319,298.7033)"
           id="g48"><path
             id="path50"
             style="fill:#fff200;fill-opacity:1;fill-rule:nonzero;stroke:none"
             d="m 0,0 c -0.749,0 -1.504,0.251 -2.126,0.766 -1.42,1.175 -1.619,3.279 -0.443,4.699 5.946,7.186 9.22,16.289 9.22,25.633 0,22.185 -18.048,40.233 -40.233,40.233 -22.185,0 -40.233,-18.048 -40.233,-40.233 0,-9.232 3.204,-18.25 9.023,-25.392 1.165,-1.429 0.949,-3.531 -0.479,-4.695 -1.432,-1.165 -3.534,-0.949 -4.696,0.479 -6.786,8.33 -10.523,18.844 -10.523,29.608 0,25.865 21.042,46.908 46.908,46.908 25.866,0 46.908,-21.043 46.908,-46.908 C 13.326,20.204 9.508,9.59 2.572,1.21 1.913,0.412 0.96,0 0,0" /></g><g
           transform="translate(330.2661,270.7394)"
           id="g52"><path
             id="path54"
             style="fill:#ffffff;fill-opacity:1;fill-rule:nonzero;stroke:none"
             d="M 0,0 -7.132,19.455 -14.434,0 Z m -18.501,-11.201 -4.686,-12.653 h -12.236 l 23.437,60.4 h 10.208 l 23.101,-60.4 H 8.674 l -4.771,12.653 z" /></g><g
           transform="translate(384.8198,246.8859)"
           id="g56"><path
             id="path58"
             style="fill:#ffffff;fill-opacity:1;fill-rule:nonzero;stroke:none"
             d="M 0,0 H -30.658 V 60.4 H -18.96 V 10.62 l 18.96,0 z" /></g><g
           transform="translate(409.3774,246.8859)"
           id="g60"><path
             id="path62"
             style="fill:#ffffff;fill-opacity:1;fill-rule:nonzero;stroke:none"
             d="m 0,0 h -8.424 l -21.651,60.4 h 12.65 L -4.231,20.119 9.002,60.4 h 12.57 z" /></g><g
           transform="translate(442.5239,277.6252)"
           id="g64"><path
             id="path66"
             style="fill:#ffffff;fill-opacity:1;fill-rule:nonzero;stroke:none"
             d="m 0,0 c 0,-2.6 0.431,-5.019 1.285,-7.26 0.856,-2.24 2.131,-4.286 3.819,-6.139 1.852,-2.019 3.954,-3.575 6.305,-4.668 2.351,-1.092 4.781,-1.639 7.302,-1.639 5.28,0 9.71,1.881 13.296,5.643 3.58,3.761 5.37,8.448 5.37,14.063 0,5.144 -1.801,9.534 -5.415,13.171 -3.609,3.636 -7.942,5.455 -13.002,5.455 -5.285,0 -9.766,-1.813 -13.442,-5.434 C 1.841,9.568 0,5.171 0,0 m -12.401,-0.415 c 0,3.318 0.442,6.451 1.326,9.395 0.884,2.946 2.198,5.705 3.942,8.277 2.986,4.342 6.731,7.696 11.239,10.059 4.51,2.366 9.433,3.548 14.769,3.548 4.011,0 7.875,-0.775 11.597,-2.324 3.716,-1.549 7.041,-3.774 9.975,-6.679 3.014,-3.014 5.309,-6.403 6.889,-10.163 1.575,-3.761 2.362,-7.716 2.362,-11.864 0,-4.315 -0.742,-8.367 -2.22,-12.155 -1.479,-3.789 -3.66,-7.149 -6.532,-10.08 -2.906,-3.07 -6.288,-5.428 -10.146,-7.074 -3.858,-1.644 -7.886,-2.467 -12.089,-2.467 -4.509,0 -8.656,0.802 -12.445,2.405 -3.79,1.604 -7.15,3.982 -10.084,7.136 -2.816,2.987 -4.957,6.339 -6.408,10.06 -1.45,3.719 -2.175,7.695 -2.175,11.926" /></g><g
           transform="translate(511.4662,277.9157)"
           id="g68"><path
             id="path70"
             style="fill:#ffffff;fill-opacity:1;fill-rule:nonzero;stroke:none"
             d="m 0,0 h 2.617 c 4.781,0 8.412,0.864 10.888,2.593 2.475,1.728 3.711,4.252 3.711,7.57 0,3.208 -1.037,5.573 -3.111,7.094 -2.073,1.521 -5.307,2.281 -9.704,2.281 H 0 Z m 0,-31.03 h -11.823 v 60.4 H 2.532 c 4.567,0 7.959,-0.159 10.186,-0.477 2.226,-0.318 4.124,-0.837 5.705,-1.556 3.427,-1.604 6.038,-3.844 7.84,-6.719 1.796,-2.877 2.696,-6.252 2.696,-10.122 0,-4.675 -1.285,-8.637 -3.857,-11.886 -2.573,-3.25 -6.074,-5.318 -10.498,-6.201 L 29.701,-31.03 H 15.602 L 0,-2.987 Z" /></g><g
           transform="translate(575.2309,270.7394)"
           id="g72"><path
             id="path74"
             style="fill:#ffffff;fill-opacity:1;fill-rule:nonzero;stroke:none"
             d="M 0,0 -7.138,19.455 -14.435,0 Z m -18.502,-11.201 -4.69,-12.653 h -12.237 l 23.442,60.4 h 10.203 l 23.107,-60.4 H 8.668 l -4.771,12.653 z" /></g><g
           transform="translate(618.9135,257.257)"
           id="g76"><path
             id="path78"
             style="fill:#ffffff;fill-opacity:1;fill-rule:nonzero;stroke:none"
             d="m 0,0 c 6.555,0 11.381,1.603 14.475,4.812 3.098,3.208 4.65,8.227 4.65,15.058 0,6.278 -1.693,11.16 -5.081,14.644 -3.388,3.485 -8.13,5.227 -14.208,5.227 H -7.886 V 0 Z m 0.748,-10.371 h -20.535 v 60.4 H 0.414 c 5.478,0 9.857,-0.554 13.149,-1.659 3.291,-1.107 6.282,-2.96 8.961,-5.56 2.85,-2.765 5.008,-6.111 6.469,-10.039 1.468,-3.927 2.204,-8.338 2.204,-13.233 0,-5.475 -1.025,-10.378 -3.07,-14.706 C 26.076,0.504 23.107,-3.057 19.204,-5.849 16.995,-7.482 14.52,-8.644 11.777,-9.334 9.041,-10.026 5.365,-10.371 0.748,-10.371" /></g><g
           transform="translate(683.0864,270.7394)"
           id="g80"><path
             id="path82"
             style="fill:#ffffff;fill-opacity:1;fill-rule:nonzero;stroke:none"
             d="M 0,0 -7.138,19.455 -14.435,0 Z m -18.502,-11.201 -4.69,-12.653 h -12.237 l 23.442,60.4 h 10.203 l 23.107,-60.4 H 8.668 l -4.771,12.653 z" /></g><g
           transform="translate(633.268,219.2165)"
           id="g84"><path
             id="path86"
             style="fill:#fab20b;fill-opacity:1;fill-rule:nonzero;stroke:none"
             d="m 0,0 h -2.222 v 15.938 h 3.425 l 4.62,-12.326 4.618,12.326 h 3.383 L 13.824,0 H 11.657 L 11.81,13.836 6.633,0 H 4.991 l -5.156,13.836 z m -12.96,0 v 15.938 h 7.848 v -2.125 h -5.56 V 9.051 h 5.56 V 6.972 h -5.56 V 0 Z m -13.025,4.882 h 2.156 c 0.036,-0.898 0.325,-1.63 0.864,-2.195 0.541,-0.566 1.216,-0.848 2.027,-0.848 0.874,0 1.606,0.297 2.193,0.892 0.587,0.595 0.882,1.33 0.882,2.206 0,0.984 -0.301,1.749 -0.905,2.293 -0.601,0.544 -1.454,0.815 -2.554,0.815 -0.154,0 -0.27,-0.002 -0.35,-0.006 -0.082,-0.003 -0.15,-0.004 -0.209,-0.004 v 2.155 c 0.052,0 0.11,-0.002 0.181,-0.005 0.069,-0.004 0.166,-0.006 0.29,-0.006 0.817,0 1.433,0.166 1.849,0.498 0.417,0.332 0.624,0.83 0.624,1.494 0,0.562 -0.174,1.027 -0.524,1.396 -0.351,0.368 -0.788,0.554 -1.314,0.554 -0.59,0 -1.059,-0.173 -1.401,-0.515 -0.343,-0.344 -0.529,-0.821 -0.559,-1.435 h -2.102 c 0.045,1.241 0.442,2.231 1.193,2.972 0.752,0.741 1.73,1.112 2.935,1.112 1.102,0 2.037,-0.387 2.808,-1.161 0.768,-0.774 1.154,-1.704 1.154,-2.791 0,-0.657 -0.124,-1.225 -0.372,-1.707 -0.249,-0.482 -0.639,-0.906 -1.171,-1.27 0.853,-0.335 1.509,-0.872 1.964,-1.61 0.457,-0.737 0.684,-1.62 0.684,-2.649 0,-1.517 -0.495,-2.794 -1.483,-3.83 -0.988,-1.037 -2.213,-1.554 -3.671,-1.554 -1.585,0 -2.836,0.461 -3.756,1.384 -0.919,0.923 -1.396,2.195 -1.433,3.815 M -29.237,0 h -2.188 v 2.693 h 2.188 z m -14.064,5.451 c 0,-0.978 0.322,-1.809 0.969,-2.495 0.646,-0.687 1.422,-1.029 2.325,-1.029 0.956,0 1.745,0.319 2.364,0.957 0.622,0.639 0.931,1.454 0.931,2.446 0,0.993 -0.304,1.807 -0.913,2.441 -0.61,0.636 -1.381,0.953 -2.314,0.953 -0.936,0 -1.729,-0.323 -2.382,-0.97 -0.653,-0.644 -0.98,-1.414 -0.98,-2.303 m 3.689,10.487 h 2.539 l -3.613,-5.419 c 0.228,0.087 0.443,0.152 0.647,0.197 0.204,0.043 0.401,0.065 0.592,0.065 1.385,0 2.569,-0.523 3.551,-1.571 0.981,-1.046 1.473,-2.308 1.473,-3.781 0,-0.496 -0.068,-0.99 -0.203,-1.484 -0.135,-0.492 -0.338,-0.979 -0.608,-1.461 -0.504,-0.919 -1.158,-1.615 -1.963,-2.09 -0.809,-0.474 -1.737,-0.711 -2.787,-0.711 -0.751,0 -1.457,0.138 -2.119,0.415 -0.661,0.278 -1.249,0.678 -1.767,1.205 -0.51,0.525 -0.906,1.12 -1.188,1.784 -0.28,0.664 -0.421,1.339 -0.421,2.025 0,1.371 0.791,3.235 2.375,5.594 v 0.01 z M -55.834,5.199 V 4.958 c 0,-0.51 0.029,-0.888 0.089,-1.133 0.057,-0.244 0.155,-0.465 0.295,-0.662 0.269,-0.402 0.639,-0.715 1.11,-0.941 0.471,-0.227 0.984,-0.34 1.538,-0.34 1.036,0 1.81,0.282 2.322,0.844 0.509,0.561 0.765,1.415 0.765,2.561 v 5.341 c 0,0.664 -0.029,1.13 -0.087,1.395 -0.059,0.267 -0.157,0.502 -0.297,0.707 -0.269,0.408 -0.641,0.728 -1.116,0.958 -0.473,0.229 -0.995,0.345 -1.564,0.345 -0.555,0 -1.063,-0.108 -1.523,-0.323 -0.459,-0.216 -0.828,-0.521 -1.105,-0.915 -0.154,-0.212 -0.263,-0.468 -0.328,-0.772 -0.065,-0.302 -0.099,-0.76 -0.099,-1.372 z m -2.375,0.405 v 4.707 c 0,0.984 0.074,1.746 0.224,2.281 0.15,0.537 0.396,1.032 0.74,1.484 0.532,0.701 1.181,1.235 1.947,1.604 0.767,0.369 1.612,0.552 2.54,0.552 0.962,0 1.837,-0.197 2.621,-0.591 0.784,-0.394 1.444,-0.966 1.976,-1.718 0.292,-0.423 0.505,-0.913 0.64,-1.467 0.135,-0.555 0.204,-1.241 0.204,-2.057 v -4.86 c 0,-0.869 -0.071,-1.588 -0.208,-2.157 -0.14,-0.569 -0.359,-1.061 -0.657,-1.478 -0.511,-0.708 -1.165,-1.255 -1.96,-1.642 -0.796,-0.387 -1.667,-0.579 -2.616,-0.579 -0.92,0 -1.766,0.184 -2.54,0.553 -0.773,0.367 -1.437,0.902 -1.992,1.603 -0.32,0.408 -0.554,0.906 -0.699,1.494 -0.147,0.587 -0.22,1.345 -0.22,2.271 M -64.207,0 h -2.331 v 14.054 h -2.781 v 1.884 h 5.112 z m -18.794,6.884 -2.243,6.054 -2.287,-6.054 z M -88.353,4.641 -90.147,0 h -2.442 l 6.229,15.938 h 2.244 L -77.889,0 h -2.528 l -1.752,4.641 z M -93.29,0 h -2.309 v 15.938 h 2.309 z m -4.17,0 h -7.531 v 15.938 h 2.309 V 2.199 h 5.222 z m -10.311,0 h -2.31 v 15.938 h 2.31 z m -2.714,17.415 2.231,3.809 h 2.201 l -3.12,-3.809 z M -126.729,0 h -2.221 v 15.938 h 3.425 l 4.62,-12.326 4.618,12.326 h 3.383 V 0 h -2.167 l 0.152,13.836 L -120.096,0 h -1.64 l -5.157,13.836 z m -8.209,6.884 -2.244,6.054 -2.289,-6.054 z M -140.292,4.641 -142.087,0 h -2.44 l 6.229,15.938 h 2.244 L -129.826,0 h -2.528 l -1.752,4.641 z M -151.959,0 v 15.938 h 7.848 v -2.125 h -5.56 V 9.051 h 5.56 V 6.972 h -5.56 V 0 Z m -12.358,6.884 -2.245,6.054 -2.287,-6.054 z M -169.669,4.641 -171.464,0 h -2.441 l 6.227,15.938 h 2.244 L -159.205,0 h -2.528 l -1.751,4.641 z m -14.777,-2.507 h 2.802 c 1.773,0 3.176,0.516 4.208,1.549 1.034,1.033 1.549,2.435 1.549,4.21 0,1.837 -0.547,3.275 -1.64,4.311 -1.096,1.036 -2.611,1.555 -4.543,1.555 h -2.376 z M -182.213,0 h -4.477 v 15.938 h 5.134 c 2.394,0 4.325,-0.742 5.795,-2.224 1.47,-1.481 2.205,-3.415 2.205,-5.801 0,-1.356 -0.275,-2.594 -0.825,-3.71 -0.552,-1.116 -1.345,-2.047 -2.382,-2.79 -0.7,-0.504 -1.448,-0.866 -2.242,-1.084 C -179.801,0.109 -180.87,0 -182.213,0 m -26.741,8.045 c 0,-0.832 0.14,-1.618 0.417,-2.358 0.277,-0.741 0.675,-1.381 1.193,-1.922 0.547,-0.57 1.178,-1.011 1.894,-1.324 0.715,-0.314 1.444,-0.471 2.189,-0.471 1.649,0 3.029,0.585 4.137,1.758 1.108,1.17 1.664,2.625 1.664,4.361 0,0.737 -0.133,1.44 -0.399,2.107 -0.268,0.668 -0.656,1.282 -1.165,1.845 -0.607,0.649 -1.254,1.128 -1.944,1.439 -0.689,0.31 -1.454,0.464 -2.293,0.464 -0.753,0 -1.467,-0.142 -2.146,-0.427 -0.679,-0.285 -1.28,-0.697 -1.805,-1.236 -0.549,-0.562 -0.975,-1.216 -1.281,-1.959 -0.307,-0.744 -0.461,-1.503 -0.461,-2.277 m -2.406,0.022 c 0,1.116 0.21,2.175 0.633,3.174 0.424,1 1.044,1.901 1.863,2.703 0.771,0.759 1.632,1.334 2.577,1.725 0.944,0.39 1.961,0.586 3.047,0.586 1.118,0 2.152,-0.196 3.103,-0.586 0.953,-0.391 1.824,-0.972 2.611,-1.746 0.81,-0.796 1.42,-1.687 1.829,-2.671 0.407,-0.985 0.612,-2.046 0.612,-3.185 0,-1.13 -0.175,-2.172 -0.524,-3.126 -0.352,-0.951 -0.876,-1.806 -1.578,-2.565 -0.824,-0.891 -1.746,-1.563 -2.762,-2.014 -1.019,-0.454 -2.123,-0.679 -3.312,-0.679 -1.197,0 -2.3,0.23 -3.311,0.689 -1.011,0.46 -1.917,1.143 -2.721,2.047 -0.678,0.751 -1.191,1.606 -1.543,2.567 -0.35,0.959 -0.524,1.986 -0.524,3.081 M -213.419,0 h -2.31 v 15.938 h 2.31 z m -15.324,2.134 h 2.803 c 1.772,0 3.175,0.516 4.208,1.549 1.033,1.033 1.548,2.435 1.548,4.21 0,1.837 -0.546,3.275 -1.64,4.311 -1.096,1.036 -2.611,1.555 -4.543,1.555 h -2.376 z M -226.51,0 h -4.477 v 15.938 h 5.133 c 2.395,0 4.326,-0.742 5.796,-2.224 1.47,-1.481 2.205,-3.415 2.205,-5.801 0,-1.356 -0.275,-2.594 -0.825,-3.71 -0.551,-1.116 -1.344,-2.047 -2.382,-2.79 -0.7,-0.504 -1.448,-0.866 -2.243,-1.084 C -224.099,0.109 -225.167,0 -226.51,0 m -14.164,17.415 2.233,3.809 h 2.2 l -3.119,-3.809 z m 3.81,-10.531 -2.244,6.054 -2.288,-6.054 z M -242.218,4.641 -244.013,0 h -2.44 l 6.228,15.938 h 2.244 L -231.752,0 h -2.529 l -1.751,4.641 z m -12.511,3.022 h 1.183 c 1.598,0 2.787,0.257 3.567,0.776 0.782,0.518 1.172,1.306 1.172,2.364 0,1.029 -0.336,1.785 -1.006,2.266 -0.672,0.482 -1.734,0.723 -3.186,0.723 h -1.73 z m 0,-7.663 h -2.308 v 15.938 h 4.597 c 1.912,0 3.371,-0.442 4.378,-1.326 1.006,-0.883 1.51,-2.159 1.51,-3.831 0,-1.298 -0.421,-2.385 -1.263,-3.256 -0.844,-0.872 -1.929,-1.34 -3.257,-1.407 L -246.552,0 h -2.889 l -5.288,7.399 z m -14.71,6.884 -2.245,6.054 -2.287,-6.054 z M -274.792,4.641 -276.587,0 h -2.441 l 6.228,15.938 h 2.243 L -264.327,0 h -2.529 l -1.751,4.641 z" /></g></g></g></g></svg>